PathFileType	4	(X/Y/Z)	TVC_58_BWA_05_walk_RCNL2025.trc
DataRate	CameraRate	NumFrames	NumMarkers	Units	OrigDataRate	OrigDataStartFrame	OrigNumFrames
100	100	6	27	mm	100	321	366
Frame#	Time	R_Shoulder			L_Shoulder			C7			J_Notch			R_Elbow			L_Elbow			R_Wrist			L_Wrist			R_Asis			L_Asis			R_Psis			L_Psis			Sacral			Thoracic			Sternum			R_Thigh_Lateral			R_Knee_Lateral			R_Shank_Lateral			R_Ankle_Lateral			R_Heel			R_Toe			L_Thigh_Lateral			L_Knee_Lateral			L_Shank_Lateral			L_Ankle_Lateral			L_Heel			L_Toe		
		X1	Y1	Z1	X2	Y2	Z2	X3	Y3	Z3	X4	Y4	Z4	X5	Y5	Z5	X6	Y6	Z6	X7	Y7	Z7	X8	Y8	Z8	X9	Y9	Z9	X10	Y10	Z10	X11	Y11	Z11	X12	Y12	Z12	X13	Y13	Z13	X14	Y14	Z14	X15	Y15	Z15	X16	Y16	Z16	X17	Y17	Z17	X18	Y18	Z18	X19	Y19	Z19	X20	Y20	Z20	X21	Y21	Z21	X22	Y22	Z22	X23	Y23	Z23	X24	Y24	Z24	X25	Y25	Z25	X26	Y26	Z26	X27	Y27	Z27
321	3.20000000	560.827393	1323.683228	385.915161	565.308044	1329.668945	28.882317	506.764099	1400.211426	198.609436	648.391296	1297.561768	207.777328	482.797028	1012.590149	449.917267	535.240540	1005.585938	-38.388874	525.334900	769.542938	497.787201	657.246704	788.037872	-81.917458	686.562195	897.426392	348.839233	656.813110	889.748047	36.759758	450.401398	924.394104	276.928223	435.517303	926.048645	169.380234	442.959351	925.221375	223.154228	450.051880	1094.829102	208.346527	746.271912	1069.461426	192.267303	690.589722	689.001953	440.168671	781.385986	481.533020	341.540955	809.478516	282.206787	382.098907	851.076538	79.100983	281.921234	801.732605	61.541885	224.376724	980.875732	87.703766	252.720520	543.274048	647.283875	-20.580463	538.244812	447.882904	99.873383	463.875244	268.745148	60.940773	381.835693	65.263191	173.328613	339.332153	69.981956	226.601181	517.406555	42.681427	196.539322
322	3.21000000	568.711853	1322.416870	385.747162	572.921753	1328.208740	28.650042	514.505310	1398.917236	198.417603	656.273254	1296.450806	207.542130	491.014740	1011.316772	449.744690	542.436951	1003.891663	-38.065479	532.756989	768.238159	497.947311	665.246796	786.549683	-81.083546	694.824219	896.328491	348.920868	665.178406	888.404175	36.567978	458.747040	923.344238	276.424774	443.981354	925.071228	168.916748	451.364197	924.207733	222.670761	458.362061	1093.427246	208.231644	754.484436	1068.562866	192.211288	697.538208	686.629822	439.889893	789.636108	480.394501	339.483124	814.447205	279.028076	378.990387	853.054688	76.936646	278.187592	804.018799	60.075851	220.146286	982.747009	83.643890	249.820221	550.288940	646.115967	-20.639847	543.582031	447.010437	99.902748	467.288300	268.570190	61.057663	382.201996	65.964279	173.207199	339.703674	71.335518	226.514343	517.543457	42.674297	196.331528
323	3.22000000	576.572510	1321.191162	385.643524	580.643555	1326.852661	28.487743	522.274536	1397.692017	198.284424	664.199951	1295.438965	207.396973	499.370972	1010.027954	449.617096	549.577942	1002.309937	-37.707153	540.514893	766.967438	498.133179	673.040222	785.105011	-80.263058	703.245422	895.326538	349.022797	673.729492	887.011963	36.464561	467.200134	922.347839	275.867706	452.598724	924.137695	168.327347	459.899429	923.242767	222.097527	466.765259	1092.079956	208.071854	762.831177	1067.695679	192.281174	704.991211	684.085144	439.425873	797.720215	478.994629	337.477966	819.589233	275.849060	375.730988	854.328735	74.706711	274.639069	805.322510	58.466568	216.403854	983.741211	79.217697	246.439926	557.504272	644.945923	-20.647228	549.149048	446.154999	99.935074	470.859039	268.354095	61.215611	382.596405	66.781219	173.089767	340.146484	72.849892	226.428833	517.714966	42.674011	196.100906
324	3.23000000	584.414124	1320.020630	385.601746	588.474487	1325.624390	28.393322	530.072632	1396.554077	198.209671	672.171143	1294.543579	207.339279	507.858948	1008.739746	449.529358	556.682068	1000.863525	-37.316147	548.611481	765.747528	498.338928	680.620972	783.722595	-79.478203	711.837097	894.436218	349.123444	682.462036	885.599487	36.436176	475.762604	921.416260	275.271545	461.360229	923.253723	167.636444	468.561417	922.334991	221.453995	475.255707	1090.806763	207.866837	771.320740	1066.871094	192.456238	712.951050	681.517822	438.775604	805.604675	477.389160	335.572083	824.899353	272.784088	372.398438	855.238953	72.550407	271.328918	805.997192	56.858273	213.184052	984.254883	74.646309	242.662872	564.902954	643.801941	-20.629358	554.946533	445.331116	99.954491	474.488617	268.130524	61.384174	383.030914	67.738762	172.972260	340.676605	74.543701	226.340912	517.927368	42.682487	195.849457
325	3.24000000	592.242493	1318.921509	385.618622	596.413757	1324.547729	28.363871	537.900269	1395.521362	198.192810	680.186096	1293.781128	207.365295	516.473267	1007.470520	449.475800	563.770203	999.577026	-36.895714	557.048157	764.595917	498.557434	687.984772	782.422546	-78.751751	720.603210	893.678162	349.199860	691.367493	884.203064	36.467400	484.434082	920.562439	274.652039	470.253326	922.424927	166.872208	477.343704	921.493683	220.762123	483.826508	1089.627197	207.617584	779.956421	1066.109131	192.713882	721.387390	679.117371	437.959686	813.307556	475.685608	333.797272	830.356995	269.984833	369.097626	856.078552	70.593727	268.315247	806.364197	55.400860	210.507950	984.650391	70.132988	238.645477	572.468689	642.716675	-20.615536	560.980164	444.553528	99.941071	478.102509	267.946716	61.533562	383.521820	68.864914	172.848648	341.313080	76.439842	226.245193	518.188843	42.701004	195.579346
326	3.25000000	600.063660	1317.911011	385.690216	604.458435	1323.645630	28.395853	545.757812	1394.610596	198.232834	688.243469	1293.167236	207.470169	525.209839	1006.241394	449.450531	570.864563	998.476440	-36.450382	565.824921	763.530334	498.780396	695.129089	781.226105	-78.106323	729.539062	893.077759	349.229584	700.432373	882.865417	36.542866	493.211609	919.800964	274.025177	479.262482	921.658203	166.064194	486.237045	920.729584	220.044685	492.469849	1088.560181	207.326523	788.734253	1065.437256	193.031189	730.244446	677.086365	437.018311	820.899658	474.028992	332.170624	835.993103	267.639771	365.959930	857.070435	68.934013	265.654816	806.686279	54.227398	208.381485	985.217896	65.848793	234.596893	580.191895	641.724792	-20.634062	567.262634	443.835724	99.870323	481.659760	267.859375	61.643806	384.089325	70.190094	172.710892	342.078857	78.566071	226.134766	518.509827	42.729126	195.292679
